<?xml version="1.0" standalone="no"?>
<!DOCTYPE svg PUBLIC "-//W3C//DTD SVG 20010904//EN"
 "http://www.w3.org/TR/2001/REC-SVG-20010904/DTD/svg10.dtd">
<svg version="1.0" xmlns="http://www.w3.org/2000/svg"
 width="70.000000pt" height="70.000000pt" viewBox="0 0 70.000000 70.000000"
 preserveAspectRatio="xMidYMid meet">
<metadata>
Created by potrace 1.11, written by Peter Selinger 2001-2013
</metadata>
<g transform="translate(0.000000,70.000000) scale(0.100000,-0.100000)"
fill="#000000" stroke="none">
<path d="M0 350 l0 -350 350 0 350 0 0 350 0 350 -350 0 -350 0 0 -350z m529
243 c-12 -14 -12 -16 1 -11 49 18 58 17 85 -4 35 -27 55 -75 55 -130 0 -53
-29 -114 -52 -112 -10 1 -16 -2 -13 -6 10 -16 -27 -32 -75 -32 -34 1 -59 7
-79 22 -32 22 -77 87 -67 97 3 4 6 1 6 -6 0 -7 5 -9 10 -6 14 9 12 25 -3 25
-7 0 -14 11 -15 25 -1 19 2 23 16 19 14 -5 14 -3 -2 10 -16 13 -17 16 -4 16
11 0 15 6 11 21 -5 19 -4 20 16 9 21 -11 22 -10 11 11 -11 19 -9 25 11 41 13
10 32 16 42 14 9 -2 17 0 17 5 0 5 10 9 21 9 19 0 20 -2 8 -17z m-245 -63 c-3
-2 -9 2 -13 9 -6 9 -11 10 -15 2 -4 -6 -13 -11 -19 -11 -7 0 -6 4 3 10 8 5 11
13 6 17 -4 4 -14 -1 -22 -11 -8 -11 -14 -15 -14 -9 0 16 28 36 40 28 5 -3 10
0 10 7 1 7 7 2 15 -12 7 -14 11 -27 9 -30z m-41 -145 c-7 -21 -13 -19 -13 6 0
11 4 18 10 14 5 -3 7 -12 3 -20z m9 -63 c-14 -4 -16 -38 -3 -47 14 -8 32 30
24 52 -7 17 -6 17 12 0 11 -12 14 -21 8 -25 -6 -4 -12 -16 -15 -27 -2 -14 -10
-19 -27 -17 -22 3 -22 3 -4 -15 13 -13 19 -15 21 -6 4 15 22 18 22 4 0 -5 -6
-14 -14 -20 -10 -9 -16 -8 -26 4 -7 8 -17 12 -22 9 -5 -3 -1 -12 9 -20 17 -13
17 -13 0 -14 -10 0 -16 -4 -12 -9 3 -6 -4 -9 -15 -8 -19 1 -19 3 -6 13 20 14
21 28 1 20 -9 -3 -15 0 -15 9 0 8 5 14 12 13 7 -2 13 2 13 7 1 6 4 17 8 25 3
8 8 28 11 43 4 18 11 25 18 21 9 -6 9 -9 0 -12z m193 -72 c-3 -5 -1 -10 4 -10
6 0 11 4 11 9 0 6 42 9 98 8 l97 -2 3 -39 c3 -36 2 -38 -20 -34 -13 3 -32 9
-43 13 -16 5 -17 5 -5 -4 11 -8 -3 -11 -59 -11 l-74 0 19 22 c19 21 19 21 -3
16 -13 -4 -23 -2 -23 3 0 5 -7 9 -15 9 -8 0 -15 7 -15 15 0 8 7 15 16 15 8 0
12 -4 9 -10z m-40 -40 c-3 -5 2 -10 11 -10 10 0 15 -3 11 -6 -10 -10 -39 5
-32 16 3 5 8 10 11 10 3 0 2 -4 -1 -10z"/>
<path d="M585 540 c-3 -5 6 -15 22 -21 15 -5 31 -16 35 -22 5 -8 8 -8 8 3 0
21 -17 46 -26 37 -4 -4 -13 -2 -20 4 -8 7 -14 7 -19 -1z"/>
<path d="M503 529 c-52 -19 -68 -106 -27 -140 26 -22 84 -16 105 10 50 61 -8
156 -78 130z"/>
<path d="M530 215 c0 -8 7 -15 15 -15 8 0 15 7 15 15 0 8 -7 15 -15 15 -8 0
-15 -7 -15 -15z"/>
</g>
</svg>
